<?xml version="1.0" encoding="utf-8"?>
<!-- Generator: Adobe Illustrator 24.3.0, SVG Export Plug-In . SVG Version: 6.00 Build 0)  -->
<svg version="1.1" id="Layer_1" xmlns="http://www.w3.org/2000/svg" xmlns:xlink="http://www.w3.org/1999/xlink" x="0px" y="0px"
	 viewBox="0 0 80 80" style="enable-background:new 0 0 80 80;" xml:space="preserve">
<style type="text/css">
	.st0{fill:none;}
	.st1{fill:url(#SVGID_1_);}
	.st2{fill:url(#SVGID_2_);}
	.st3{fill:url(#SVGID_3_);}
</style>
<line class="st0" x1="1.7" y1="16.3" x2="1.5" y2="16"/>
<g>
	<g>
		<linearGradient id="SVGID_1_" gradientUnits="userSpaceOnUse" x1="0" y1="43.5162" x2="71.6058" y2="43.5162">
			<stop  offset="0" style="stop-color:#0F6078"/>
			<stop  offset="0.7869" style="stop-color:#39BFEB"/>
		</linearGradient>
		<path class="st1" d="M37.7,58.1c2.8,0,5.7,0,8.5,0c0.7,0,1.3,0.2,1.8,0.8c0.6,0.7,0.7,1.6,0.3,2.4c-0.4,0.9-1.1,1.3-2,1.3
			c-6.2,0-12.4,0-18.6,0c-1.1,0-2.3-0.1-3.4-0.3c-6.1-1.1-10.7-4.4-13.7-9.9c-0.5-1-0.9-2-1.4-3.1c-3.4,1.5-6.4,0.1-7.9-1.9
			C-0.3,45.3-0.4,42.2,1,40c0.8-1.2,1.8-2,3.1-2.5c1.7-0.6,3.4-0.5,5.1,0.2c0.1-0.1,0.1-0.2,0.1-0.3c1.2-3.5,3.2-6.4,6.1-8.7
			c2.7-2.2,5.8-3.5,9.2-4c3.2-0.4,6.3-0.2,9.4,0.4c4.5,0.8,8.7,2.6,12.4,5.2c2.5,1.8,4.9,3.6,7.4,5.5c2.5,1.8,5.1,3.5,8.1,4.4
			c2.4,0.8,4.9,1.1,7.4,1.1c1.3,0,2.2,1,2.2,2.3c0,1.2-1,2.2-2.3,2.2c-1,0-2-0.1-3.1-0.2c-4.1-0.4-7.9-1.7-11.5-3.8
			c-2.8-1.7-5.3-3.7-7.9-5.7c-2.3-1.7-4.6-3.3-7.1-4.5c-2.9-1.4-6-2.2-9.3-2.4c-2.1-0.2-4.2-0.2-6.3,0.3
			c-7.2,1.6-12.2,8.9-11.1,16.2c0.7,4.4,2.9,7.9,6.6,10.3c2.7,1.8,5.7,2.6,9,2.2c3.3-0.4,6-2.8,6.8-6c0.9-3.2-0.3-6.6-2.9-8.7
			c-1.5-1.2-3.2-1.7-5.1-1.7c-1.3,0-2.2-1-2.2-2.3c0-1.2,1-2.2,2.2-2.2c0.7,0,1.5,0.1,2.2,0.2c7.2,1.3,11.9,8.5,10.1,15.6
			c-0.5,1.9-1.4,3.6-2.7,5.2C37.4,58.1,37.5,58.1,37.7,58.1z M6.5,45.5c1.1,0,1.9-0.9,1.9-2c0-1.1-0.9-1.9-2-1.9
			c-1.1,0-1.9,0.9-1.9,2C4.5,44.6,5.4,45.5,6.5,45.5z"/>
		<linearGradient id="SVGID_2_" gradientUnits="userSpaceOnUse" x1="50.3612" y1="35.135" x2="80" y2="35.135">
			<stop  offset="0" style="stop-color:#0F6078"/>
			<stop  offset="0.7869" style="stop-color:#39BFEB"/>
		</linearGradient>
		<path class="st2" d="M76.2,51.7c-2,1.7-4.2,2.5-6.8,2.5c-1,0-1.9-0.7-2.1-1.6c-0.4-1.5,0.7-2.8,2.3-2.8c3.1-0.1,5.8-2.6,6-5.6
			c0.3-3.6-2.5-6.6-6.1-6.7c-1.3,0-2.7-0.1-4-0.4c-6.2-1.4-10.6-5-13.4-10.7c-1.2-2.5-1.7-5.2-1.7-7.9c0-1.3,1-2.3,2.2-2.2
			c1.1,0,2.3,0.1,3.4,0.3c4.4,0.8,8.1,2.9,11,6.3c2.5,2.9,4,6.2,4.5,9.9c0,0.3,0.1,0.5,0.5,0.6c4.8,1.2,8.1,5.5,8.1,10.8
			C79.9,46.8,78.7,49.6,76.2,51.7z M66.9,32.7C66.1,26.9,61,21.7,55,20.8C56.1,27.3,61.5,31.9,66.9,32.7z"/>
		<linearGradient id="SVGID_3_" gradientUnits="userSpaceOnUse" x1="51.0757" y1="54.3383" x2="71.609" y2="54.3383">
			<stop  offset="0" style="stop-color:#0F6078"/>
			<stop  offset="0.7869" style="stop-color:#39BFEB"/>
		</linearGradient>
		<path class="st3" d="M68.5,62.5c1.8,0,2.7-0.6,3-1.6c0.4-1.5-0.6-2.9-2.3-2.9c-2.5,0-4.8-0.6-7-1.9c-3.3-1.9-5.6-4.7-6.8-8.3
			c-0.5-1.6-2.2-2.3-3.5-1.3c-0.7,0.5-1,1.5-0.8,2.4c1,3.4,2.8,6.2,5.4,8.6c2.7,2.4,5.8,4,9.3,4.6C67,62.4,68,62.5,68.5,62.5z"/>
	</g>
</g>
</svg>
