<svg xmlns="http://www.w3.org/2000/svg" xmlns:xlink="http://www.w3.org/1999/xlink" viewBox="0 0 80 80"><defs><style>.a{fill:none;}.b{fill:url(#a);}.c{fill:url(#b);}.d{fill:url(#c);}.e{fill:url(#d);}.f{fill:url(#e);}.g{fill:url(#f);}.h{fill:url(#g);}.i{fill:url(#h);}.j{fill:url(#i);}.k{fill:#bcdae2;}.l{fill:url(#j);}</style><linearGradient id="a" x1="26.16" y1="208.27" x2="80.88" y2="262.99" gradientTransform="translate(-111.62 -147.83) rotate(-26.18)" gradientUnits="userSpaceOnUse"><stop offset="0" stop-color="#0f6078"/><stop offset="0.79" stop-color="#39bfeb"/></linearGradient><radialGradient id="b" cx="26.31" cy="39.99" r="25.4" gradientTransform="translate(0 -13.32) scale(1 1.33)" gradientUnits="userSpaceOnUse"><stop offset="0.22" stop-color="#932c33"/><stop offset="0.66" stop-color="#ee212a"/></radialGradient><linearGradient id="c" x1="30.19" y1="234.79" x2="61.23" y2="265.82" gradientTransform="translate(-111.62 -147.83) rotate(-26.18)" gradientUnits="userSpaceOnUse"><stop offset="0" stop-color="#932c33"/><stop offset="0.79" stop-color="#eb2633"/></linearGradient><linearGradient id="d" x1="34.42" y1="217.62" x2="78.74" y2="261.94" xlink:href="#a"/><linearGradient id="e" x1="32.95" y1="224.67" x2="74.2" y2="265.92" xlink:href="#a"/><linearGradient id="f" x1="31.79" y1="229.58" x2="68.22" y2="266.01" xlink:href="#a"/><linearGradient id="g" x1="32.09" y1="236.16" x2="62.68" y2="266.75" xlink:href="#a"/><linearGradient id="h" x1="33.83" y1="243.01" x2="58.67" y2="267.85" xlink:href="#a"/><radialGradient id="i" cx="26.31" cy="40" r="25.4" gradientTransform="translate(0 -13.32) scale(1 1.33)" gradientUnits="userSpaceOnUse"><stop offset="0.22" stop-color="#0d5d75"/><stop offset="0.66" stop-color="#39bfeb"/></radialGradient><radialGradient id="j" cx="33.03" cy="56.66" r="14.41" gradientTransform="translate(0 -18.87) scale(1 1.33)" xlink:href="#i"/></defs><line class="a" x1="1.74" y1="16.26" x2="1.46" y2="15.99"/><circle class="b" cx="40.38" cy="40" r="38.69"/><path class="c" d="M17.15,59A38.64,38.64,0,0,0,39.72,78.69a38.69,38.69,0,1,1,12-75.43A38.67,38.67,0,0,0,17.15,59Z"/><circle class="d" cx="39.85" cy="56.62" r="21.95"/><circle class="e" cx="44.96" cy="42.37" r="31.34"/><circle class="f" cx="44.69" cy="48.65" r="29.17"/><circle class="g" cx="42.6" cy="52.47" r="25.76"/><circle class="h" cx="41.86" cy="56.91" r="21.63"/><circle class="i" cx="42.6" cy="60.98" r="17.56"/><path class="j" d="M17.15,59A38.59,38.59,0,0,0,39.72,78.69a38.68,38.68,0,1,1,12-75.43A38.67,38.67,0,0,0,17.15,59Z"/><path class="k" d="M20.42,58.69A38.61,38.61,0,0,0,43,78.35a38.56,38.56,0,0,1-4.17-.22A38.69,38.69,0,0,1,34.52,6.88,39.4,39.4,0,0,1,51.35,3.07h.35l-.32,0a38.7,38.7,0,0,0-31,55.6Z"/><path class="l" d="M27.84,67.46a21.87,21.87,0,0,0,12.8,11.15,21.94,21.94,0,1,1,6.79-42.78,21.69,21.69,0,0,0-9.59,2.24A22,22,0,0,0,27.84,67.46Z"/><path class="k" d="M29.79,67.06c2.71,5.51,8.5,9.66,13.89,11.45-.78.09-1.55.07-3.13.18A25.07,25.07,0,0,1,27.3,67.06a21.93,21.93,0,0,1,10-29.38,23.1,23.1,0,0,1,10-1.85,21.42,21.42,0,0,0-7.48,1.85A21.94,21.94,0,0,0,29.79,67.06Z"/></svg>