<svg xmlns="http://www.w3.org/2000/svg" viewBox="0 0 80 80"><defs><style>.a{fill:#36bfec;}.b{fill:#fff;}.b,.c{opacity:0.74;isolation:isolate;}.c{fill:#683e48;}.d{fill:#feffff;}</style></defs><circle class="a" cx="40.07" cy="40.07" r="39.93"/><path class="b" d="M50.39,77.9a5.31,5.31,0,0,1-.69,0c-.81,0-1.62,0-2.45,0A33,33,0,0,1,49.48,12h.33a24.28,24.28,0,0,1,2.45.2,5.05,5.05,0,0,1,.68.08A33,33,0,0,0,50.39,77.9Z"/><path class="c" d="M50.39,77.9a24,24,0,0,0,2.44.24h-.7c-.82,0-1.63-.09-2.42-.19A33,33,0,0,1,52.27,12.2c.8,0,1.62,0,2.44,0,.24,0,.47,0,.7,0-.83,0-1.65,0-2.46,0A33,33,0,0,0,50.39,77.9Z"/><path class="b" d="M48.77,77.68l-.37-.05a13.26,13.26,0,0,1-1.32-.25,18,18,0,0,1,7.86-35.09c.44.1.87.21,1.29.35a2.47,2.47,0,0,1,.36.11,18,18,0,0,0-7.82,34.92Z"/><path class="c" d="M48.77,77.68c.42.14.85.26,1.29.37L49.69,78c-.44-.09-.87-.21-1.29-.34a18,18,0,0,1,7.83-35,9.73,9.73,0,0,1,1.31.24,2.49,2.49,0,0,1,.37.09c-.44-.09-.88-.17-1.32-.22a18,18,0,0,0-7.82,34.93Z"/><circle class="d" cx="24.06" cy="11.97" r="5.4"/><circle class="d" cx="37.91" cy="40.16" r="3.53"/></svg>