<?xml version="1.0" encoding="utf-8"?>
<!-- Generator: Adobe Illustrator 24.2.3, SVG Export Plug-In . SVG Version: 6.00 Build 0)  -->
<svg version="1.1" id="Layer_1" xmlns="http://www.w3.org/2000/svg" xmlns:xlink="http://www.w3.org/1999/xlink" x="0px" y="0px"
	 viewBox="0 0 80 80" style="enable-background:new 0 0 80 80;" xml:space="preserve">
<style type="text/css">
	.st0{fill:url(#SVGID_1_);}
	.st1{fill:url(#SVGID_2_);}
	.st2{fill:url(#SVGID_3_);}
	.st3{fill:url(#SVGID_4_);}
	.st4{fill:url(#SVGID_5_);}
	.st5{fill:url(#SVGID_6_);}
	.st6{fill:url(#SVGID_7_);}
	.st7{fill:url(#SVGID_8_);}
	.st8{fill:url(#SVGID_9_);}
	.st9{fill:url(#SVGID_10_);}
	.st10{fill:#E9A0A0;}
	.st11{fill:url(#SVGID_11_);}
</style>
<g>
	
		<linearGradient id="SVGID_1_" gradientUnits="userSpaceOnUse" x1="25.8062" y1="207.2922" x2="81.7341" y2="263.2201" gradientTransform="matrix(0.8974 -0.4413 0.4413 0.8974 -111.6167 -147.832)">
		<stop  offset="4.888180e-07" style="stop-color:#932C33"/>
		<stop  offset="0.7869" style="stop-color:#EB2633"/>
	</linearGradient>
	<circle class="st0" cx="40.4" cy="39.6" r="39.5"/>
	
		<radialGradient id="SVGID_2_" cx="26.658" cy="39.6414" r="25.9657" gradientTransform="matrix(1 0 0 1.333 0 -13.2006)" gradientUnits="userSpaceOnUse">
		<stop  offset="0.2164" style="stop-color:#932C33"/>
		<stop  offset="0.6628" style="stop-color:#EE212A"/>
	</radialGradient>
	<path class="st1" d="M17.3,59.1C22.2,69,30.6,76,40.4,79.2c-14.6,0-28.7-8.1-35.6-22.1c-9.6-19.6-1.6-43.3,18-52.9
		C32.5-0.6,43.1-1,52.6,2.1c-5.8,0-11.7,1.3-17.3,4.1C15.7,15.8,7.7,39.5,17.3,59.1z"/>
	
		<linearGradient id="SVGID_3_" gradientUnits="userSpaceOnUse" x1="30.4219" y1="234.7412" x2="62.1435" y2="266.4628" gradientTransform="matrix(0.8974 -0.4413 0.4413 0.8974 -111.6167 -147.832)">
		<stop  offset="0" style="stop-color:#932C33"/>
		<stop  offset="0.7869" style="stop-color:#EB2633"/>
	</linearGradient>
	<circle class="st2" cx="40.5" cy="56.6" r="22.4"/>
	
		<linearGradient id="SVGID_4_" gradientUnits="userSpaceOnUse" x1="34.7472" y1="217.1937" x2="80.0478" y2="262.4944" gradientTransform="matrix(0.8974 -0.4413 0.4413 0.8974 -111.6167 -147.832)">
		<stop  offset="0" style="stop-color:#932C33"/>
		<stop  offset="0.7869" style="stop-color:#EB2633"/>
	</linearGradient>
	<circle class="st3" cx="45.7" cy="42.1" r="32"/>
	
		<linearGradient id="SVGID_5_" gradientUnits="userSpaceOnUse" x1="33.2359" y1="224.3975" x2="75.3997" y2="266.5613" gradientTransform="matrix(0.8974 -0.4413 0.4413 0.8974 -111.6167 -147.832)">
		<stop  offset="6.967723e-02" style="stop-color:#932C33"/>
		<stop  offset="0.2773" style="stop-color:#AB2B33"/>
		<stop  offset="0.6903" style="stop-color:#EB2633"/>
	</linearGradient>
	<circle class="st4" cx="45.4" cy="48.5" r="29.8"/>
	
		<linearGradient id="SVGID_6_" gradientUnits="userSpaceOnUse" x1="31.0985" y1="228.9504" x2="68.3389" y2="266.1908" gradientTransform="matrix(0.8974 -0.4413 0.4413 0.8974 -111.6167 -147.832)">
		<stop  offset="0" style="stop-color:#932C33"/>
		<stop  offset="0.1391" style="stop-color:#962C33"/>
		<stop  offset="0.2946" style="stop-color:#A02B33"/>
		<stop  offset="0.458" style="stop-color:#B12A33"/>
		<stop  offset="0.6257" style="stop-color:#C92833"/>
		<stop  offset="0.7908" style="stop-color:#EB2633"/>
	</linearGradient>
	<circle class="st5" cx="42.2" cy="52.4" r="26.3"/>
	
		<linearGradient id="SVGID_7_" gradientUnits="userSpaceOnUse" x1="31.0731" y1="235.1012" x2="62.7618" y2="266.7899" gradientTransform="matrix(0.8974 -0.4413 0.4413 0.8974 -111.6167 -147.832)">
		<stop  offset="0" style="stop-color:#932C33"/>
		<stop  offset="0.1565" style="stop-color:#932C33"/>
		<stop  offset="0.3544" style="stop-color:#932C33"/>
		<stop  offset="0.4607" style="stop-color:#9D2C33"/>
		<stop  offset="0.6585" style="stop-color:#B72A33"/>
		<stop  offset="0.9246" style="stop-color:#E52633"/>
		<stop  offset="0.947" style="stop-color:#EB2633"/>
	</linearGradient>
	<circle class="st6" cx="41.2" cy="56.7" r="22.4"/>
	
		<linearGradient id="SVGID_8_" gradientUnits="userSpaceOnUse" x1="32.365" y1="236.149" x2="63.6276" y2="267.4117" gradientTransform="matrix(0.8974 -0.4413 0.4413 0.8974 -111.6167 -147.832)">
		<stop  offset="0" style="stop-color:#932C33"/>
		<stop  offset="0.1565" style="stop-color:#932C33"/>
		<stop  offset="0.3544" style="stop-color:#932C33"/>
		<stop  offset="0.4607" style="stop-color:#9D2C33"/>
		<stop  offset="0.6585" style="stop-color:#B72A33"/>
		<stop  offset="0.9246" style="stop-color:#E52633"/>
		<stop  offset="0.947" style="stop-color:#EB2633"/>
	</linearGradient>
	<circle class="st7" cx="42.6" cy="56.9" r="22.1"/>
	
		<linearGradient id="SVGID_9_" gradientUnits="userSpaceOnUse" x1="34.1448" y1="243.1517" x2="59.5275" y2="268.5344" gradientTransform="matrix(0.8974 -0.4413 0.4413 0.8974 -111.6167 -147.832)">
		<stop  offset="0" style="stop-color:#932C33"/>
		<stop  offset="0.1565" style="stop-color:#932C33"/>
		<stop  offset="0.3544" style="stop-color:#932C33"/>
		<stop  offset="0.4607" style="stop-color:#9D2C33"/>
		<stop  offset="0.6585" style="stop-color:#B72A33"/>
		<stop  offset="0.9246" style="stop-color:#E52633"/>
		<stop  offset="0.947" style="stop-color:#EB2633"/>
	</linearGradient>
	<circle class="st8" cx="43.3" cy="61.1" r="17.9"/>
	
		<radialGradient id="SVGID_10_" cx="27.5073" cy="39.6414" r="25.9657" gradientTransform="matrix(1 0 0 1.333 0 -13.2006)" gradientUnits="userSpaceOnUse">
		<stop  offset="0.2164" style="stop-color:#932C33"/>
		<stop  offset="0.6628" style="stop-color:#EE212A"/>
	</radialGradient>
	<path class="st9" d="M18.1,59.1C23,69,31.5,76,41.2,79.2c-14.6,0-28.7-8.1-35.6-22.1C-4,37.5,4.1,13.8,23.7,4.2
		C33.3-0.6,44-1,53.5,2.1c-5.8,0-11.7,1.3-17.3,4.1C16.6,15.8,8.5,39.5,18.1,59.1z"/>
	<path class="st10" d="M20.6,58.7c4.9,9.9,13.3,16.9,23.1,20.1c-1.4,0-2.8-0.1-4.3-0.2C30,75.3,21.8,68.4,17,58.7
		c-9.6-19.6-1.6-43.3,18-53C40.5,3.1,46.6,2,52.2,1.9c0.1,0,0.2,0,0.4,0c-0.1,0-0.2,0-0.3,0c-4.6,0.4-9.2,1.7-13.6,3.9
		C19.1,15.4,11,39.1,20.6,58.7z"/>
	
		<radialGradient id="SVGID_11_" cx="33.5265" cy="56.6793" r="14.7274" gradientTransform="matrix(1 0 0 1.333 0 -18.8742)" gradientUnits="userSpaceOnUse">
		<stop  offset="0.2164" style="stop-color:#932C33"/>
		<stop  offset="0.6628" style="stop-color:#EE212A"/>
	</radialGradient>
	<path class="st11" d="M28.2,67.7c2.8,5.6,7.6,9.6,13.1,11.4c-8.3,0-16.3-4.6-20.2-12.5c-5.5-11.1-0.9-24.6,10.2-30
		c5.5-2.7,11.5-3,16.9-1.2c-3.3,0-6.6,0.7-9.8,2.3C27.3,43.1,22.7,56.6,28.2,67.7z"/>
	<path class="st10" d="M30.2,67.3c2.8,5.6,8.7,9.9,14.2,11.7c-0.8,0.1-1.6,0.1-3.2,0.2c-5.3-1.9-10.9-6.5-13.6-11.9
		c-5.5-11.1-0.9-24.6,10.2-30c3.1-1.5,6.9-1.9,10.2-1.9c-2.6,0.3-5.2,0.7-7.6,1.9C29.3,42.7,24.7,56.2,30.2,67.3z"/>
</g>
</svg>
