<svg xmlns="http://www.w3.org/2000/svg" width="27.288" height="31.949" viewBox="0 0 27.288 31.949">
  <g id="user-icon" transform="translate(-4 -1.9)">
    <path id="Path_72" data-name="Path 72" d="M31.174,24.531a9.657,9.657,0,0,0-8.414-8.414C21.282,16,19.8,16,18.44,16a49.359,49.359,0,0,0-5.8.114,9.555,9.555,0,0,0-8.527,8.414C4,26.009,4,27.6,4,29.079a2.662,2.662,0,0,0,2.956,2.842H28.673a2.7,2.7,0,0,0,2.615-2.388C31.288,27.828,31.288,26.123,31.174,24.531Zm-1.705,4.662a.9.9,0,0,1-1.023,1.023H6.842c-.8,0-1.137-.341-1.137-1.137V25.44a7.97,7.97,0,0,1,7.731-7.731h8.186a7.751,7.751,0,0,1,7.618,6.936A20.686,20.686,0,0,1,29.468,29.192Z" transform="translate(0 1.928)" fill="#fff"/>
    <path id="Path_73" data-name="Path 73" d="M9.7,8.949a7.106,7.106,0,1,1,7.049,7.163A7.109,7.109,0,0,1,9.7,8.949Zm12.507.114a5.344,5.344,0,0,0-10.688-.114,5.338,5.338,0,0,0,5.344,5.344A5.172,5.172,0,0,0,22.207,9.063Z" transform="translate(0.781 0)" fill="#fff"/>
  </g>
</svg>
