<svg xmlns="http://www.w3.org/2000/svg" width="25.069" height="29.47" viewBox="0 0 25.069 29.47">
  <g id="Group_72670" data-name="Group 72670" transform="translate(-4.249 -1.188)">
    <g id="Group_72630" data-name="Group 72630">
      <path id="Path_74" data-name="Path 74" d="M28.186,10.56l-9.8,9.824-3.716-3.789-1.083.893,4.926,4.99,10.8-10.77ZM8.631,13.386H22.494V11.855H8.631Zm6.111,9.834V21.7H8.64V23.22Zm-3.1-4.889V16.78H8.65v1.551Z" fill="#fff"/>
      <path id="Path_75" data-name="Path 75" d="M25.311,17.055H26.93V17.8q0,4.953,0,9.907c0,2.019-.928,2.949-2.936,2.949q-8.434,0-16.869,0c-1.942,0-2.873-.92-2.874-2.861q0-10.677,0-21.354c0-1.913.919-2.821,2.832-2.824H8.6V1.188H22.533V3.619c.632,0,1.2,0,1.776,0a2.32,2.32,0,0,1,2.554,2.188c.108,1.524.025,3.062.025,4.627H25.313V7.243c0-1.733-.272-2-2.024-2h-.746V7.636H8.61V5.26A6.407,6.407,0,0,0,6.9,5.3a2.212,2.212,0,0,0-.96.879c-.133.183-.075.517-.075.783q0,10.142,0,20.283c0,1.443.371,1.808,1.833,1.808H23.562c1.34,0,1.749-.413,1.749-1.768q0-4.719,0-9.438C25.312,17.6,25.311,17.358,25.311,17.055ZM10.363,2.781V6.017H20.881V2.781Z" fill="#fff"/>
      <path id="Path_76" data-name="Path 76" d="M28.186,10.56l1.132,1.148-10.8,10.77-4.926-4.99,1.083-.893,3.716,3.789Z" fill="#fff"/>
      <path id="Path_77" data-name="Path 77" d="M8.631,13.386V11.855H22.494v1.531Z" fill="#fff"/>
      <path id="Path_78" data-name="Path 78" d="M14.742,23.22H8.64V21.7h6.1Z" fill="#fff"/>
      <path id="Path_79" data-name="Path 79" d="M11.643,18.331H8.65V16.78h2.993Z" fill="#fff"/>
    </g>
    <rect id="Rectangle_137250" data-name="Rectangle 137250" width="1.39" height="11.365" transform="translate(6.422 11.855)" fill="#fff"/>
  </g>
</svg>
