<svg xmlns="http://www.w3.org/2000/svg" width="28.85" height="27.972" viewBox="0 0 28.85 27.972">
  <g id="Group_72672" data-name="Group 72672" transform="translate(-662.75 -344.95)">
    <g id="Group_72668" data-name="Group 72668" transform="translate(663 345.2)">
      <path id="Path_116" data-name="Path 116" d="M77.323,91.868a.7.7,0,0,0-.145-.45c-2.229-2.432-4.471-4.849-6.7-7.281a1.041,1.041,0,0,0-.841-.367q-6.879.012-13.764.005c-.212,0-.423-.005-.635,0-.34.011-.455.129-.469.474,0,.075,0,.147,0,.222v26.146c0,.541.08.622.632.622H76.737c.48,0,.587-.107.592-.579,0-.083,0-.166,0-.249q0-4.577,0-9.148Q77.331,96.564,77.323,91.868ZM70.4,85.3c1.854,2.006,3.678,3.981,5.548,6H70.4Zm6.084,25.091H55.624V84.63H69.546v6.906c0,.509.1.605.619.605h6.314Z" transform="translate(-54.766 -83.77)" fill="#fff" stroke="#fff" stroke-miterlimit="10" stroke-width="0.5"/>
      <path id="Path_117" data-name="Path 117" d="M87.706,149.928a3.333,3.333,0,0,0-3.07-3.378c-.051-.008-.1-.021-.174-.035a.01.01,0,0,0-.008,0,3.812,3.812,0,0,0,.908-1.055.214.214,0,0,1,.021-.043,2.95,2.95,0,0,0,.287-1.267,2.919,2.919,0,0,0-2.917-2.917,3.037,3.037,0,0,0-.627.067,3.3,3.3,0,0,0-1.5.855c-.054.056-.107.118-.155.179s-.08.1-.118.161c-.021.029-.043.062-.062.094a3.191,3.191,0,0,0-.447,1.795.494.494,0,0,0,.008.088.911.911,0,0,0,.016.123c.005.048.016.1.024.145a2.9,2.9,0,0,0,.094.34,3.309,3.309,0,0,0,.935,1.345q.088.08.185.161c-.1.008-.145.013-.185.019a3.158,3.158,0,0,0-3.051,2.639,11.284,11.284,0,0,0-.072,1.808c-.008.619.11.729.742.729H87c.573,0,.7-.129.7-.713C87.706,150.687,87.711,150.306,87.706,149.928Zm-6.893-5.776a1.957,1.957,0,1,1,1.964,1.948A1.975,1.975,0,0,1,80.813,144.153Zm5.9,6.625H78.745a10.371,10.371,0,0,1,.094-1.436,2.266,2.266,0,0,1,2.2-1.816q1.7-.036,3.4,0a2.336,2.336,0,0,1,2.264,2.167C86.736,150.046,86.712,150.4,86.712,150.778Z" transform="translate(-71.626 -125.837)" fill="#fff" stroke="#fff" stroke-miterlimit="10" stroke-width="0.5"/>
      <path id="Path_118" data-name="Path 118" d="M149.65,122.342c0,1.906,0,3.813,0,5.719a1.917,1.917,0,0,1-.079.541c-.476,1.575-.96,3.148-1.442,4.722-.011.035-.024.069-.036.1a.458.458,0,0,1-.467.355c-.241-.005-.352-.161-.416-.373-.426-1.4-.84-2.8-1.29-4.191a5.892,5.892,0,0,1-.271-1.867c.013-3.555,0-7.11.005-10.664a2,2,0,0,1,2.245-2.105,1.98,1.98,0,0,1,1.73,1.71,6.1,6.1,0,0,1,.022.634Q149.651,119.634,149.65,122.342Zm-3.1-1.649v7.089h2.25v-7.089ZM148.81,118c0-.524.014-1.02,0-1.515a1.123,1.123,0,0,0-1.078-1.084,1.106,1.106,0,0,0-1.181,1c-.043.526-.009,1.059-.009,1.6Zm-1.185,13.863.059,0,1.006-3.225h-2.032Zm1.174-12.032v-.971h-2.251v.971Z" transform="translate(-121.3 -106.319)" fill="#fff" stroke="#fff" stroke-miterlimit="10" stroke-width="0.5"/>
      <path id="Path_119" data-name="Path 119" d="M90.021,146.7a.01.01,0,0,1,.008,0,2.962,2.962,0,0,0,.9-1.058A3.812,3.812,0,0,1,90.021,146.7Zm-3.828-4.361a3.3,3.3,0,0,1,1.5-.855A2.9,2.9,0,0,0,86.193,142.335Zm-.64,2.925a2.908,2.908,0,0,0,.935,1.345A3.309,3.309,0,0,1,85.553,145.26Zm.305-2.491a2.863,2.863,0,0,0-.458,1.562,2.228,2.228,0,0,0,.011.233,3.191,3.191,0,0,1,.447-1.795Z" transform="translate(-77.193 -126.02)" fill="#fff" stroke="#fff" stroke-miterlimit="10" stroke-width="0.5"/>
      <path id="Path_120" data-name="Path 120" d="M61.785,97.688c-.166-.427-.311-.821-.476-1.208a.331.331,0,0,0-.214-.158c-.3-.058-.6-.09-.9-.136a.439.439,0,0,1-.441-.495c-.005-.414,0-.829,0-1.243a.441.441,0,0,1,.4-.477c.28-.055.558-.123.841-.154.2-.022.271-.121.33-.3a7.1,7.1,0,0,1,.363-.892.285.285,0,0,0-.028-.367c-.18-.209-.344-.432-.511-.652-.223-.294-.216-.44.043-.694.3-.3.613-.585.915-.883a.393.393,0,0,1,.569-.041c.244.181.486.365.721.558a.291.291,0,0,0,.366.044,7.937,7.937,0,0,1,.944-.38.3.3,0,0,0,.239-.282c.035-.3.079-.6.129-.9a.433.433,0,0,1,.485-.42c.405,0,.81,0,1.216,0a.422.422,0,0,1,.46.384c.057.326.091.657.158.981a.362.362,0,0,0,.188.216c.335.15.676.289,1.021.411a.364.364,0,0,0,.285-.037c.236-.159.454-.345.682-.517a.443.443,0,0,1,.684.032c.284.276.565.555.839.841a.493.493,0,0,1,.042.717c-.177.235-.367.462-.535.7a.326.326,0,0,0-.038.258c.13.353.273.7.427,1.045a.333.333,0,0,0,.2.175c.315.064.636.1.954.152a.439.439,0,0,1,.428.484c.007.405,0,.811,0,1.216a.438.438,0,0,1-.411.469c-.318.05-.639.087-.953.152a.36.36,0,0,0-.215.186q-.227.5-.416,1.02a.358.358,0,0,0,.034.282c.166.243.359.467.535.7a.493.493,0,0,1-.047.754q-.35.353-.7.7c-.3.3-.483.314-.817.059-.22-.168-.431-.348-.66-.5a.359.359,0,0,0-.282-.023c-.328.118-.642.276-.973.383a.315.315,0,0,0-.25.307c-.035.293-.074.585-.122.875a.437.437,0,0,1-.484.425q-.622.013-1.244,0a.441.441,0,0,1-.485-.426c-.051-.309-.08-.622-.147-.926a.4.4,0,0,0-.205-.233c-.325-.15-.657-.284-.994-.406a.358.358,0,0,0-.282.022c-.244.164-.469.357-.7.534a.426.426,0,0,1-.677-.039c-.289-.284-.575-.571-.86-.859a.4.4,0,0,1-.04-.631C61.375,98.213,61.6,97.932,61.785,97.688Zm4.04-8.286c-.037.323-.077.64-.11.958a.583.583,0,0,1-.472.53,9.422,9.422,0,0,0-1.386.591.518.518,0,0,1-.672-.039c-.234-.2-.482-.39-.7-.566L62,91.321c.189.247.375.485.557.727a.587.587,0,0,1,.039.734,11.1,11.1,0,0,0-.556,1.314c-.141.417-.192.491-.642.537-.3.031-.6.067-.891.1v.609c.326.04.635.089.946.115a.571.571,0,0,1,.534.463,12.622,12.622,0,0,0,.617,1.435.468.468,0,0,1-.025.578c-.209.254-.41.515-.614.772l.441.443a.156.156,0,0,0,.05-.016c.229-.17.456-.342.685-.514a.554.554,0,0,1,.754-.039,3.168,3.168,0,0,0,.944.437,1,1,0,0,1,.938,1.118c.015.533.065.532.606.484.017,0,.032-.016.065-.034.054-.313.111-.638.164-.964A.463.463,0,0,1,67,99.207a4.242,4.242,0,0,0,1.537-.658.387.387,0,0,1,.528.03c.242.211.491.414.728.612l.474-.445c-.195-.256-.388-.514-.585-.769a.559.559,0,0,1-.041-.642c.222-.471.435-.949.611-1.439a.572.572,0,0,1,.529-.437c.309-.03.617-.075.954-.118a2.912,2.912,0,0,1,0-.344c.028-.226-.062-.311-.29-.313s-.439-.048-.659-.068a.553.553,0,0,1-.5-.437c-.182-.5-.4-.985-.626-1.462a.484.484,0,0,1,.038-.6c.217-.257.409-.535.578-.76l-.42-.5c-.272.2-.525.388-.77.583a.578.578,0,0,1-.688.029,13.638,13.638,0,0,0-1.39-.584.576.576,0,0,1-.451-.519c-.033-.318-.078-.635-.118-.962Z" transform="translate(-58.415 -87.31)" fill="#fff" stroke="#fff" stroke-miterlimit="10" stroke-width="0.5"/>
      <path id="Path_121" data-name="Path 121" d="M75.119,107.262A3.125,3.125,0,0,1,72,104.1a3.123,3.123,0,1,1,6.245.093A3.121,3.121,0,0,1,75.119,107.262Zm0-.831a2.291,2.291,0,1,0-2.284-2.29A2.312,2.312,0,0,0,75.115,106.431Z" transform="translate(-67.383 -96.396)" fill="#fff" stroke="#fff" stroke-miterlimit="10" stroke-width="0.5"/>
    </g>
  </g>
</svg>
